<?xml version="1.0" encoding="UTF-8"?>
<svg width="456" height="456" viewBox="0 0 456 456" xmlns="http://www.w3.org/2000/svg">
  <!-- Famick Home Management App Icon Foreground - White house icon on transparent -->

  <!-- House "m" icon centered - White version for foreground layer -->
  <g transform="translate(78, 98)">
    <!-- House body (m shape) -->
    <path d="M0 220 L0 110 Q0 96 16 96 L56 96 L56 110 Q56 80 150 40 Q244 80 244 110 L244 96 L284 96 Q300 96 300 110 L300 220"
          fill="white" stroke="none"/>

    <!-- Chimney -->
    <rect x="220" y="20" width="32" height="60" rx="4" fill="white"/>

    <!-- Chimney smoke -->
    <g fill="rgba(255,255,255,0.8)">
      <circle cx="236" cy="0" r="16"/>
      <circle cx="252" cy="-16" r="12"/>
    </g>

    <!-- Left window (cut out for adaptive icon) -->
    <rect x="40" y="130" width="56" height="70" rx="4" fill="rgba(0,0,0,0.3)"/>
    <line x1="68" y1="130" x2="68" y2="200" stroke="white" stroke-width="4"/>
    <line x1="40" y1="165" x2="96" y2="165" stroke="white" stroke-width="4"/>

    <!-- Right window (cut out for adaptive icon) -->
    <rect x="204" y="130" width="56" height="70" rx="4" fill="rgba(0,0,0,0.3)"/>
    <line x1="232" y1="130" x2="232" y2="200" stroke="white" stroke-width="4"/>
    <line x1="204" y1="165" x2="260" y2="165" stroke="white" stroke-width="4"/>
  </g>
</svg>
