<?xml version="1.0" encoding="UTF-8"?>
<svg width="456" height="456" viewBox="0 0 456 456" xmlns="http://www.w3.org/2000/svg">
  <!-- Famick Home Management Splash Screen - Logo lockup centered -->

  <!-- "f" - Sage Green -->
  <text x="88" y="210" font-family="Arial Black, Arial, sans-serif" font-size="56" font-weight="900" fill="#7BA17C">f</text>

  <!-- "a" - Sage Green -->
  <text x="118" y="210" font-family="Arial Black, Arial, sans-serif" font-size="56" font-weight="900" fill="#7BA17C">a</text>

  <!-- House "m" - Warm Gray with windows and chimney -->
  <g transform="translate(154, 150)">
    <!-- House body (m shape) -->
    <path d="M0 66 L0 38 Q0 32 5 32 L14 32 L14 38 Q14 28 33 16 Q52 28 52 38 L52 32 L61 32 Q66 32 66 38 L66 66"
          fill="#9E9E9E" stroke="none"/>

    <!-- Chimney -->
    <rect x="47" y="8" width="7" height="14" rx="1" fill="#9E9E9E"/>

    <!-- Chimney smoke -->
    <g fill="#A8A8A8">
      <circle cx="50.5" cy="4" r="3"/>
      <circle cx="54" cy="1" r="2"/>
    </g>

    <!-- Left window -->
    <rect x="10" y="42" width="11" height="14" rx="1" fill="white"/>
    <line x1="15.5" y1="42" x2="15.5" y2="56" stroke="#9E9E9E" stroke-width="0.8"/>
    <line x1="10" y1="49" x2="21" y2="49" stroke="#9E9E9E" stroke-width="0.8"/>

    <!-- Right window -->
    <rect x="45" y="42" width="11" height="14" rx="1" fill="white"/>
    <line x1="50.5" y1="42" x2="50.5" y2="56" stroke="#9E9E9E" stroke-width="0.8"/>
    <line x1="45" y1="49" x2="56" y2="49" stroke="#9E9E9E" stroke-width="0.8"/>
  </g>

  <!-- "i" - Forest Green (dot + stem) -->
  <circle cx="238" cy="168" r="8" fill="#518751"/>
  <rect x="230" y="180" width="16" height="36" rx="2" fill="#518751"/>

  <!-- "c" - Forest Green -->
  <text x="250" y="210" font-family="Arial Black, Arial, sans-serif" font-size="56" font-weight="900" fill="#518751">c</text>

  <!-- "k" - Forest Green -->
  <text x="290" y="210" font-family="Arial Black, Arial, sans-serif" font-size="56" font-weight="900" fill="#518751">k</text>

  <!-- "HOME MANAGEMENT" subtitle - Warm Gray, smaller, uppercase -->
  <text x="228" y="248" font-family="Arial, sans-serif" font-size="20" font-weight="600" letter-spacing="3" fill="#9E9E9E" text-anchor="middle">HOME MANAGEMENT</text>
</svg>
